<?xml version="1.0" encoding="UTF-8" standalone="no"?>
<svg
   width="1606.875"
   height="507.875"
   xml:space="preserve"
   overflow="hidden"
   version="1.1"
   id="svg15"
   sodipodi:docname="SapheraX_Logo_text_only_mono.svg"
   inkscape:version="1.4.2 (f4327f4, 2025-05-13)"
   xmlns:inkscape="http://www.inkscape.org/namespaces/inkscape"
   xmlns:sodipodi="http://sodipodi.sourceforge.net/DTD/sodipodi-0.dtd"
   xmlns="http://www.w3.org/2000/svg"
   xmlns:svg="http://www.w3.org/2000/svg"><sodipodi:namedview
     id="namedview15"
     pagecolor="#ffffff"
     bordercolor="#000000"
     borderopacity="0.25"
     inkscape:showpageshadow="2"
     inkscape:pageopacity="0.0"
     inkscape:pagecheckerboard="0"
     inkscape:deskcolor="#d1d1d1"
     inkscape:zoom="0.77091307"
     inkscape:cx="850.939"
     inkscape:cy="296.40177"
     inkscape:window-width="1920"
     inkscape:window-height="1129"
     inkscape:window-x="-8"
     inkscape:window-y="-8"
     inkscape:window-maximized="1"
     inkscape:current-layer="g15" /><defs
     id="defs6"><filter
       id="fx0"
       x="-182.90001"
       y="-61.5"
       width="2194.8"
       height="738"
       filterUnits="userSpaceOnUse"
       primitiveUnits="userSpaceOnUse"><feComponentTransfer
         color-interpolation-filters="sRGB"
         id="feComponentTransfer1"><feFuncR
           type="discrete"
           tableValues="0 0"
           id="feFuncR1" /><feFuncG
           type="discrete"
           tableValues="0 0"
           id="feFuncG1" /><feFuncB
           type="discrete"
           tableValues="0 0"
           id="feFuncB1" /><feFuncA
           type="linear"
           slope="0.4"
           intercept="0"
           id="feFuncA1" /></feComponentTransfer><feGaussianBlur
         stdDeviation="5.2195 5.2195"
         id="feGaussianBlur1" /></filter><filter
       id="fx1"
       x="-182.90001"
       y="-61.5"
       width="2194.8"
       height="738"
       filterUnits="userSpaceOnUse"
       primitiveUnits="userSpaceOnUse"><feComponentTransfer
         color-interpolation-filters="sRGB"
         id="feComponentTransfer2"><feFuncR
           type="discrete"
           tableValues="0 0"
           id="feFuncR2" /><feFuncG
           type="discrete"
           tableValues="0 0"
           id="feFuncG2" /><feFuncB
           type="discrete"
           tableValues="0 0"
           id="feFuncB2" /><feFuncA
           type="linear"
           slope="0.4"
           intercept="0"
           id="feFuncA2" /></feComponentTransfer><feGaussianBlur
         stdDeviation="5.2195 5.2195"
         id="feGaussianBlur2" /></filter><filter
       id="fx2"
       x="-182.90001"
       y="-61.5"
       width="2194.8"
       height="738"
       filterUnits="userSpaceOnUse"
       primitiveUnits="userSpaceOnUse"><feComponentTransfer
         color-interpolation-filters="sRGB"
         id="feComponentTransfer3"><feFuncR
           type="discrete"
           tableValues="0 0"
           id="feFuncR3" /><feFuncG
           type="discrete"
           tableValues="0 0"
           id="feFuncG3" /><feFuncB
           type="discrete"
           tableValues="0 0"
           id="feFuncB3" /><feFuncA
           type="linear"
           slope="0.4"
           intercept="0"
           id="feFuncA3" /></feComponentTransfer><feGaussianBlur
         stdDeviation="5.2195 5.2195"
         id="feGaussianBlur3" /></filter><filter
       id="fx3"
       x="-182.90001"
       y="-61.5"
       width="2194.8"
       height="738"
       filterUnits="userSpaceOnUse"
       primitiveUnits="userSpaceOnUse"><feComponentTransfer
         color-interpolation-filters="sRGB"
         id="feComponentTransfer4"><feFuncR
           type="discrete"
           tableValues="0 0"
           id="feFuncR4" /><feFuncG
           type="discrete"
           tableValues="0 0"
           id="feFuncG4" /><feFuncB
           type="discrete"
           tableValues="0 0"
           id="feFuncB4" /><feFuncA
           type="linear"
           slope="0.4"
           intercept="0"
           id="feFuncA4" /></feComponentTransfer><feGaussianBlur
         stdDeviation="5.2195 5.2195"
         id="feGaussianBlur4" /></filter><clipPath
       id="clip4"><rect
         x="-67"
         y="-14"
         width="1829"
         height="615"
         id="rect4" /></clipPath><clipPath
       id="clip5"><rect
         x="168"
         y="133"
         width="1197"
         height="304"
         id="rect5" /></clipPath><clipPath
       id="clip6"><rect
         x="152"
         y="149"
         width="266"
         height="240"
         id="rect6" /></clipPath></defs><g
     clip-path="url(#clip4)"
     transform="translate(2.937664,2.937664)"
     id="g15"><g
       clip-path="url(#clip5)"
       filter="url(#fx0)"
       transform="translate(-68,-9)"
       id="g8"><g
         id="g7"><path
           d="M 86.075,3.3 C 70.675,3.3 55.9167,1.2375 41.8,-2.8875 27.6833,-7.0125 16.3167,-12.375 7.7,-18.975 l 15.125,-33.55 c 8.25,5.8667 18.0125,10.6792 29.2875,14.4375 11.275,3.7583 22.6875,5.6375 34.2375,5.6375 8.8,0 15.904,-0.8708 21.312,-2.6125 5.409,-1.7417 9.396,-4.1708 11.963,-7.2875 2.567,-3.1167 3.85,-6.6917 3.85,-10.725 0,-5.1333 -2.017,-9.2125 -6.05,-12.2375 -4.033,-3.025 -9.35,-5.5 -15.95,-7.425 -6.6,-1.925 -13.8875,-3.7583 -21.8625,-5.5 -7.975,-1.7417 -15.95,-3.8958 -23.925,-6.4625 -7.975,-2.5667 -15.2625,-5.8667 -21.8625,-9.9 -6.6,-4.0333 -11.9625,-9.35 -16.0875,-15.95 -4.125,-6.6 -6.1875,-15.033 -6.1875,-25.3 0,-11 2.9792,-21.037 8.9375,-30.112 5.9583,-9.075 14.9417,-16.317 26.95,-21.725 12.0083,-5.409 27.0875,-8.113 45.2375,-8.113 12.1,0 24.017,1.421 35.75,4.263 11.733,2.841 22.092,7.104 31.075,12.787 l -13.75,33.825 c -8.983,-5.133 -17.967,-8.937 -26.95,-11.412 -8.983,-2.475 -17.783,-3.713 -26.4,-3.713 -8.6167,0 -15.675,1.008 -21.175,3.025 -5.5,2.017 -9.4417,4.629 -11.825,7.838 -2.3833,3.208 -3.575,6.92 -3.575,11.137 0,4.95 2.0167,8.938 6.05,11.963 4.0333,3.025 9.35,5.454 15.95,7.287 6.6,1.833 13.8875,3.667 21.8625,5.5 7.9745,1.833 15.9495,3.942 23.9245,6.325 7.975,2.383 15.263,5.592 21.863,9.625 6.6,4.0333 11.962,9.35 16.087,15.95 4.125,6.6 6.188,14.9417 6.188,25.025 0,10.8167 -3.025,20.7167 -9.075,29.7 -6.05,8.9833 -15.079,16.225 -27.088,21.725 C 119.579,0.55 104.408,3.3 86.075,3.3 Z M 286.321,0 v -28.875 l -2.75,-6.325 v -51.7 c 0,-9.1667 -2.796,-16.317 -8.388,-21.45 -5.591,-5.133 -14.162,-7.7 -25.712,-7.7 -7.884,0 -15.629,1.238 -23.238,3.713 -7.608,2.475 -14.071,5.82 -19.387,10.037 l -15.4,-29.975 c 8.066,-5.683 17.783,-10.083 29.15,-13.2 11.366,-3.117 22.916,-4.675 34.65,-4.675 22.55,0 40.058,5.317 52.525,15.95 12.466,10.633 18.7,27.225 18.7,49.775 V 0 Z m -45.1,2.2 c -11.55,0 -21.45,-1.970833 -29.7,-5.9125 -8.25,-3.94167 -14.575,-9.3042 -18.975,-16.0875 -4.4,-6.7833 -6.6,-14.3917 -6.6,-22.825 0,-8.8 2.154,-16.5 6.462,-23.1 4.309,-6.6 11.138,-11.7792 20.488,-15.5375 9.35,-3.7583 21.541,-5.6375 36.575,-5.6375 h 39.325 v 25.025 h -34.65 c -10.084,0 -17.004,1.65 -20.763,4.95 -3.758,3.3 -5.637,7.425 -5.637,12.375 0,5.5 2.154,9.8542 6.462,13.0625 4.309,3.2083 10.221,4.8125 17.738,4.8125 7.15,0 13.566,-1.6958 19.25,-5.0875 5.683,-3.3917 9.808,-8.3875 12.375,-14.9875 l 6.6,19.8 c -3.117,9.5333 -8.8,16.775 -17.05,21.725 -8.25,4.95 -18.884,7.425 -31.9,7.425 z m 211.841,0 c -12.466,0 -23.374,-2.75 -32.725,-8.25 -9.35,-5.5 -16.637,-13.8875 -21.862,-25.1625 -5.225,-11.275 -7.837,-25.5292 -7.837,-42.7625 0,-17.4167 2.474,-31.717 7.424,-42.9 4.95,-11.183 12.1,-19.525 21.451,-25.025 9.349,-5.5 20.533,-8.25 33.549,-8.25 13.934,0 26.446,3.163 37.538,9.488 11.092,6.325 19.892,15.17 26.4,26.537 6.508,11.367 9.762,24.75 9.762,40.15 0,15.5833 -3.254,29.0583 -9.762,40.425 -6.508,11.3667 -15.308,20.1667 -26.4,26.4 -11.092,6.233333 -23.604,9.35 -37.538,9.35 z m -87.45,51.15 v -201.3 h 40.975 v 30.25 l -0.825,44 2.75,43.725 V 53.35 Z M 445.637,-33 c 7.15,0 13.521,-1.65 19.113,-4.95 5.592,-3.3 10.083,-8.0208 13.475,-14.1625 3.392,-6.1417 5.087,-13.4292 5.087,-21.8625 0,-8.6167 -1.695,-15.95 -5.087,-22 -3.392,-6.05 -7.883,-10.725 -13.475,-14.025 -5.592,-3.3 -11.963,-4.95 -19.113,-4.95 -7.15,0 -13.566,1.65 -19.25,4.95 -5.683,3.3 -10.175,7.975 -13.475,14.025 -3.3,6.05 -4.95,13.3833 -4.95,22 0,8.4333 1.65,15.7208 4.95,21.8625 3.3,6.1417 7.792,10.8625 13.475,14.1625 5.684,3.3 12.1,4.95 19.25,4.95 z M 555.706,0 v -204.05 h 42.9 v 97.075 l -9.625,-12.375 c 5.317,-9.9 12.925,-17.508 22.825,-22.825 9.9,-5.317 21.175,-7.975 33.825,-7.975 11.734,0 22.229,2.338 31.488,7.013 9.258,4.675 16.546,11.825 21.862,21.45 5.317,9.625 7.975,21.9537 7.975,36.987 V 0 h -42.9 v -78.1 c 0,-11.9167 -2.612,-20.7167 -7.837,-26.4 -5.225,-5.683 -12.604,-8.525 -22.138,-8.525 -6.783,0 -12.879,1.421 -18.287,4.263 -5.409,2.841 -9.625,7.195 -12.65,13.062 -3.025,5.8667 -4.538,13.3833 -4.538,22.55 V 0 Z m 265.238,2.2 c -16.867,0 -31.671,-3.3 -44.413,-9.9 -12.741,-6.6 -22.596,-15.6292 -29.562,-27.0875 -6.967,-11.4583 -10.45,-24.5208 -10.45,-39.1875 0,-14.85 3.437,-28.004 10.312,-39.462 6.875,-11.459 16.271,-20.442 28.188,-26.95 11.916,-6.509 25.391,-9.763 40.425,-9.763 14.483,0 27.546,3.071 39.187,9.213 11.642,6.141 20.854,14.941 27.638,26.4 6.783,11.458 10.175,25.162 10.175,41.112 0,1.65 -0.092,3.5292 -0.275,5.6375 -0.184,2.1083 -0.367,4.0792 -0.55,5.9125 H 771.444 V -86.9 h 97.625 l -16.5,7.425 c 0,-7.7 -1.559,-14.3917 -4.675,-20.075 -3.117,-5.683 -7.425,-10.129 -12.925,-13.337 -5.5,-3.209 -11.917,-4.813 -19.25,-4.813 -7.334,0 -13.796,1.604 -19.388,4.813 -5.591,3.208 -9.946,7.7 -13.062,13.4745 -3.117,5.775 -4.675,12.6042 -4.675,20.4875 v 6.6 c 0,8.0667 1.787,15.1708 5.362,21.3125 3.575,6.1417 8.617,10.8167 15.125,14.025 6.509,3.2083 14.163,4.8125 22.963,4.8125 7.883,0 14.804,-1.1917 20.762,-3.575 5.959,-2.3833 11.413,-5.9583 16.363,-10.725 l 22.825,24.75 c -6.784,7.7 -15.309,13.6125 -25.575,17.7375 C 846.152,0.1375 834.327,2.2 820.944,2.2 Z M 921.571,0 v -147.95 h 40.975 v 41.8 l -5.775,-12.1 c 4.4,-10.45 11.458,-18.379 21.175,-23.787 9.716,-5.409 21.541,-8.113 35.474,-8.113 v 39.6 c -1.83,-0.183 -3.48,-0.321 -4.95,-0.412 -1.47,-0.092 -3.02,-0.138 -4.67,-0.138 -11.738,0 -21.225,3.346 -28.467,10.038 -7.241,6.6912 -10.862,17.0953 -10.862,31.212 V 0 Z m 198.919,0 v -28.875 l -2.75,-6.325 v -51.7 c 0,-9.1667 -2.8,-16.317 -8.39,-21.45 -5.59,-5.133 -14.16,-7.7 -25.71,-7.7 -7.89,0 -15.63,1.238 -23.24,3.713 -7.61,2.475 -14.07,5.82 -19.39,10.037 l -15.4,-29.975 c 8.07,-5.683 17.79,-10.083 29.15,-13.2 11.37,-3.117 22.92,-4.675 34.65,-4.675 22.55,0 40.06,5.317 52.53,15.95 12.46,10.633 18.7,27.225 18.7,49.775 V 0 Z m -45.1,2.2 c -11.55,0 -21.45,-1.970833 -29.7,-5.9125 -8.25,-3.94167 -14.58,-9.3042 -18.98,-16.0875 -4.4,-6.7833 -6.6,-14.3917 -6.6,-22.825 0,-8.8 2.16,-16.5 6.46,-23.1 4.31,-6.6 11.14,-11.7792 20.49,-15.5375 9.35,-3.7583 21.54,-5.6375 36.58,-5.6375 h 39.32 v 25.025 h -34.65 c -10.08,0 -17,1.65 -20.76,4.95 -3.76,3.3 -5.64,7.425 -5.64,12.375 0,5.5 2.16,9.8542 6.47,13.0625 4.3,3.2083 10.22,4.8125 17.73,4.8125 7.15,0 13.57,-1.6958 19.25,-5.0875 5.69,-3.3917 9.81,-8.3875 12.38,-14.9875 l 6.6,19.8 c -3.12,9.5333 -8.8,16.775 -17.05,21.725 -8.25,4.95 -18.89,7.425 -31.9,7.425 z"
           fill="#555555"
           transform="translate(181.809,361)"
           id="path7" /></g></g><path
       d="M 86.075,3.3 C 70.675,3.3 55.9167,1.2375 41.8,-2.8875 27.6833,-7.0125 16.3167,-12.375 7.7,-18.975 l 15.125,-33.55 c 8.25,5.8667 18.0125,10.6792 29.2875,14.4375 11.275,3.7583 22.6875,5.6375 34.2375,5.6375 8.8,0 15.904,-0.8708 21.312,-2.6125 5.409,-1.7417 9.396,-4.1708 11.963,-7.2875 2.567,-3.1167 3.85,-6.6917 3.85,-10.725 0,-5.1333 -2.017,-9.2125 -6.05,-12.2375 -4.033,-3.025 -9.35,-5.5 -15.95,-7.425 -6.6,-1.925 -13.8875,-3.7583 -21.8625,-5.5 -7.975,-1.7417 -15.95,-3.8958 -23.925,-6.4625 -7.975,-2.5667 -15.2625,-5.8667 -21.8625,-9.9 -6.6,-4.0333 -11.9625,-9.35 -16.0875,-15.95 -4.125,-6.6 -6.1875,-15.033 -6.1875,-25.3 0,-11 2.9792,-21.037 8.9375,-30.112 5.9583,-9.075 14.9417,-16.317 26.95,-21.725 12.0083,-5.409 27.0875,-8.113 45.2375,-8.113 12.1,0 24.017,1.421 35.75,4.263 11.733,2.841 22.092,7.104 31.075,12.787 l -13.75,33.825 c -8.983,-5.133 -17.967,-8.937 -26.95,-11.412 -8.983,-2.475 -17.783,-3.713 -26.4,-3.713 -8.6167,0 -15.675,1.008 -21.175,3.025 -5.5,2.017 -9.4417,4.629 -11.825,7.838 -2.3833,3.208 -3.575,6.92 -3.575,11.137 0,4.95 2.0167,8.938 6.05,11.963 4.0333,3.025 9.35,5.454 15.95,7.287 6.6,1.833 13.8875,3.667 21.8625,5.5 7.9745,1.833 15.9495,3.942 23.9245,6.325 7.975,2.383 15.263,5.592 21.863,9.625 6.6,4.0333 11.962,9.35 16.087,15.95 4.125,6.6 6.188,14.9417 6.188,25.025 0,10.8167 -3.025,20.7167 -9.075,29.7 -6.05,8.9833 -15.079,16.225 -27.088,21.725 C 119.579,0.55 104.408,3.3 86.075,3.3 Z M 286.321,0 v -28.875 l -2.75,-6.325 v -51.7 c 0,-9.1667 -2.796,-16.317 -8.388,-21.45 -5.591,-5.133 -14.162,-7.7 -25.712,-7.7 -7.884,0 -15.629,1.238 -23.238,3.713 -7.608,2.475 -14.071,5.82 -19.387,10.037 l -15.4,-29.975 c 8.066,-5.683 17.783,-10.083 29.15,-13.2 11.366,-3.117 22.916,-4.675 34.65,-4.675 22.55,0 40.058,5.317 52.525,15.95 12.466,10.633 18.7,27.225 18.7,49.775 V 0 Z m -45.1,2.2 c -11.55,0 -21.45,-1.970833 -29.7,-5.9125 -8.25,-3.94167 -14.575,-9.3042 -18.975,-16.0875 -4.4,-6.7833 -6.6,-14.3917 -6.6,-22.825 0,-8.8 2.154,-16.5 6.462,-23.1 4.309,-6.6 11.138,-11.7792 20.488,-15.5375 9.35,-3.7583 21.541,-5.6375 36.575,-5.6375 h 39.325 v 25.025 h -34.65 c -10.084,0 -17.004,1.65 -20.763,4.95 -3.758,3.3 -5.637,7.425 -5.637,12.375 0,5.5 2.154,9.8542 6.462,13.0625 4.309,3.2083 10.221,4.8125 17.738,4.8125 7.15,0 13.566,-1.6958 19.25,-5.0875 5.683,-3.3917 9.808,-8.3875 12.375,-14.9875 l 6.6,19.8 c -3.117,9.5333 -8.8,16.775 -17.05,21.725 -8.25,4.95 -18.884,7.425 -31.9,7.425 z m 211.841,0 c -12.466,0 -23.374,-2.75 -32.725,-8.25 -9.35,-5.5 -16.637,-13.8875 -21.862,-25.1625 -5.225,-11.275 -7.837,-25.5292 -7.837,-42.7625 0,-17.4167 2.474,-31.717 7.424,-42.9 4.95,-11.183 12.1,-19.525 21.451,-25.025 9.349,-5.5 20.533,-8.25 33.549,-8.25 13.934,0 26.446,3.163 37.538,9.488 11.092,6.325 19.892,15.17 26.4,26.537 6.508,11.367 9.762,24.75 9.762,40.15 0,15.5833 -3.254,29.0583 -9.762,40.425 -6.508,11.3667 -15.308,20.1667 -26.4,26.4 -11.092,6.233333 -23.604,9.35 -37.538,9.35 z m -87.45,51.15 v -201.3 h 40.975 v 30.25 l -0.825,44 2.75,43.725 V 53.35 Z M 445.637,-33 c 7.15,0 13.521,-1.65 19.113,-4.95 5.592,-3.3 10.083,-8.0208 13.475,-14.1625 3.392,-6.1417 5.087,-13.4292 5.087,-21.8625 0,-8.6167 -1.695,-15.95 -5.087,-22 -3.392,-6.05 -7.883,-10.725 -13.475,-14.025 -5.592,-3.3 -11.963,-4.95 -19.113,-4.95 -7.15,0 -13.566,1.65 -19.25,4.95 -5.683,3.3 -10.175,7.975 -13.475,14.025 -3.3,6.05 -4.95,13.3833 -4.95,22 0,8.4333 1.65,15.7208 4.95,21.8625 3.3,6.1417 7.792,10.8625 13.475,14.1625 5.684,3.3 12.1,4.95 19.25,4.95 z M 555.706,0 v -204.05 h 42.9 v 97.075 l -9.625,-12.375 c 5.317,-9.9 12.925,-17.508 22.825,-22.825 9.9,-5.317 21.175,-7.975 33.825,-7.975 11.734,0 22.229,2.338 31.488,7.013 9.258,4.675 16.546,11.825 21.862,21.45 5.317,9.625 7.975,21.9537 7.975,36.987 V 0 h -42.9 v -78.1 c 0,-11.9167 -2.612,-20.7167 -7.837,-26.4 -5.225,-5.683 -12.604,-8.525 -22.138,-8.525 -6.783,0 -12.879,1.421 -18.287,4.263 -5.409,2.841 -9.625,7.195 -12.65,13.062 -3.025,5.8667 -4.538,13.3833 -4.538,22.55 V 0 Z m 265.238,2.2 c -16.867,0 -31.671,-3.3 -44.413,-9.9 -12.741,-6.6 -22.596,-15.6292 -29.562,-27.0875 -6.967,-11.4583 -10.45,-24.5208 -10.45,-39.1875 0,-14.85 3.437,-28.004 10.312,-39.462 6.875,-11.459 16.271,-20.442 28.188,-26.95 11.916,-6.509 25.391,-9.763 40.425,-9.763 14.483,0 27.546,3.071 39.187,9.213 11.642,6.141 20.854,14.941 27.638,26.4 6.783,11.458 10.175,25.162 10.175,41.112 0,1.65 -0.092,3.5292 -0.275,5.6375 -0.184,2.1083 -0.367,4.0792 -0.55,5.9125 H 771.444 V -86.9 h 97.625 l -16.5,7.425 c 0,-7.7 -1.559,-14.3917 -4.675,-20.075 -3.117,-5.683 -7.425,-10.129 -12.925,-13.337 -5.5,-3.209 -11.917,-4.813 -19.25,-4.813 -7.334,0 -13.796,1.604 -19.388,4.813 -5.591,3.208 -9.946,7.7 -13.062,13.4745 -3.117,5.775 -4.675,12.6042 -4.675,20.4875 v 6.6 c 0,8.0667 1.787,15.1708 5.362,21.3125 3.575,6.1417 8.617,10.8167 15.125,14.025 6.509,3.2083 14.163,4.8125 22.963,4.8125 7.883,0 14.804,-1.1917 20.762,-3.575 5.959,-2.3833 11.413,-5.9583 16.363,-10.725 l 22.825,24.75 c -6.784,7.7 -15.309,13.6125 -25.575,17.7375 C 846.152,0.1375 834.327,2.2 820.944,2.2 Z M 921.571,0 v -147.95 h 40.975 v 41.8 l -5.775,-12.1 c 4.4,-10.45 11.458,-18.379 21.175,-23.787 9.716,-5.409 21.541,-8.113 35.474,-8.113 v 39.6 c -1.83,-0.183 -3.48,-0.321 -4.95,-0.412 -1.47,-0.092 -3.02,-0.138 -4.67,-0.138 -11.738,0 -21.225,3.346 -28.467,10.038 -7.241,6.6912 -10.862,17.0953 -10.862,31.212 V 0 Z m 198.919,0 v -28.875 l -2.75,-6.325 v -51.7 c 0,-9.1667 -2.8,-16.317 -8.39,-21.45 -5.59,-5.133 -14.16,-7.7 -25.71,-7.7 -7.89,0 -15.63,1.238 -23.24,3.713 -7.61,2.475 -14.07,5.82 -19.39,10.037 l -15.4,-29.975 c 8.07,-5.683 17.79,-10.083 29.15,-13.2 11.37,-3.117 22.92,-4.675 34.65,-4.675 22.55,0 40.06,5.317 52.53,15.95 12.46,10.633 18.7,27.225 18.7,49.775 V 0 Z m -45.1,2.2 c -11.55,0 -21.45,-1.970833 -29.7,-5.9125 -8.25,-3.94167 -14.58,-9.3042 -18.98,-16.0875 -4.4,-6.7833 -6.6,-14.3917 -6.6,-22.825 0,-8.8 2.16,-16.5 6.46,-23.1 4.31,-6.6 11.14,-11.7792 20.49,-15.5375 9.35,-3.7583 21.54,-5.6375 36.58,-5.6375 h 39.32 v 25.025 h -34.65 c -10.08,0 -17,1.65 -20.76,4.95 -3.76,3.3 -5.64,7.425 -5.64,12.375 0,5.5 2.16,9.8542 6.47,13.0625 4.3,3.2083 10.22,4.8125 17.73,4.8125 7.15,0 13.57,-1.6958 19.25,-5.0875 5.69,-3.3917 9.81,-8.3875 12.38,-14.9875 l 6.6,19.8 c -3.12,9.5333 -8.8,16.775 -17.05,21.725 -8.25,4.95 -18.89,7.425 -31.9,7.425 z"
       fill="#555555"
       transform="translate(105.495,344)"
       id="path8" /><text
       fill="#000000"
       fill-opacity="0"
       font-family="Arial, Arial_MSFontService, sans-serif"
       font-size="257.4px"
       x="7.6999998"
       y="21.174999"
       id="text8">Saphera</text><g
       filter="url(#fx1)"
       transform="translate(1222,221)"
       id="g10"><g
         id="g9"><path
           d=""
           fill="#555555"
           transform="translate(71.7885,131)"
           id="path9" /></g></g><path
       d=""
       fill="#555555"
       transform="translate(1285.47,344)"
       id="path10" /><text
       fill="#000000"
       fill-opacity="0"
       font-family="Arial, Arial_MSFontService, sans-serif"
       font-size="1e-32px"
       id="text10"> </text><g
       clip-path="url(#clip6)"
       filter="url(#fx2)"
       transform="translate(1138,-14)"
       id="g12"><g
         id="g11"><path
           d="M 44.043,0 H -8.32519 L 78.5522,-99.6338 29.6753,-196.851 h 42.2973 l 19.2017,36.927 c 0.6266,1.342 5.013,10.429 13.1587,27.258 0.538,0.895 1.119,2.104 1.746,3.625 10.921,-13.338 20.097,-24.259 27.527,-32.763 l 31.018,-35.047 h 50.891 L 125.415,-93.1885 173.889,0 h -45.654 l -14.771,-29.6753 c -7.698,-15.6657 -12.801,-26.9002 -15.3073,-33.7036 -3.4912,5.2816 -12.4878,16.2028 -26.9897,32.7637 z"
           fill="#555555"
           transform="translate(181.57,366)"
           id="path11" /></g></g><path
       d="M 44.042969,0 H -8.3251953 L 78.552246,-99.633789 29.675293,-196.85059 h 42.297363 l 19.20166,36.92627 q 0.939942,2.01416 13.159184,27.2583 0.80566,1.34278 1.7456,3.62549 16.38184,-20.00732 27.52686,-32.76367 l 31.01806,-35.04639 h 50.89112 L 125.41504,-93.188477 173.88916,0 h -45.6543 l -14.7705,-29.675293 q -11.54786,-23.498535 -15.307622,-33.703613 -5.236816,7.922363 -26.989746,32.763672 z"
       id="text12"
       style="font-style:italic;font-weight:700;font-size:275px;font-family:Arial, Arial_MSFontService, sans-serif;fill:#555555"
       transform="translate(1311.26,344)"
       aria-label="X" /><g
       filter="url(#fx3)"
       transform="translate(1321,-9)"
       id="g14"><g
         id="g13"><path
           d=""
           fill="#555555"
           transform="translate(181.903,361)"
           id="path12" /></g></g><text
       fill="#555555"
       font-family="Montserrat, Montserrat_MSFontService, sans-serif"
       font-style="italic"
       font-weight="700"
       font-size="275px"
       transform="translate(1494.59,344)"
       id="text14"> </text><path
       d="m 124.5,416.5 h 1386"
       stroke="#555555"
       stroke-width="9.16667"
       stroke-miterlimit="8"
       fill="none"
       fill-rule="evenodd"
       id="path14" /></g></svg>
